<?xml version="1.0" encoding="UTF-8" standalone="no"?>
<svg
   width="20.000023"
   height="19.324097"
   viewBox="0 0 20.000023 19.324097"
   version="1.1"
   id="svg4"
   sodipodi:docname="home2.svg"
   inkscape:version="1.1.2 (1:1.1+202202050852+0a00cf5339)"
   xmlns:inkscape="http://www.inkscape.org/namespaces/inkscape"
   xmlns:sodipodi="http://sodipodi.sourceforge.net/DTD/sodipodi-0.dtd"
   xmlns="http://www.w3.org/2000/svg"
   xmlns:svg="http://www.w3.org/2000/svg">
  <defs
     id="defs8" />
  <sodipodi:namedview
     id="namedview6"
     pagecolor="#ffffff"
     bordercolor="#666666"
     borderopacity="1.0"
     inkscape:pageshadow="2"
     inkscape:pageopacity="0.0"
     inkscape:pagecheckerboard="0"
     showgrid="false"
     fit-margin-top="0"
     fit-margin-left="0"
     fit-margin-right="0"
     fit-margin-bottom="0"
     inkscape:zoom="12.489369"
     inkscape:cx="1.601362"
     inkscape:cy="11.409704"
     inkscape:window-width="1366"
     inkscape:window-height="704"
     inkscape:window-x="0"
     inkscape:window-y="27"
     inkscape:window-maximized="1"
     inkscape:current-layer="svg4" />
  <path
     fill-rule="evenodd"
     clip-rule="evenodd"
     d="m 11.993103,0.7577775 c -1.1367,-1.01037 -2.8495003,-1.01037 -3.9862003,0 l -7.67125002,6.81892 c -0.41279,0.3669 -0.44997,0.999 -0.08305,1.4118 0.36692,0.4127 0.99899002,0.4499 1.41177002,0.083 l 0.33564,-0.2983 v 5.6167005 c -5e-5,0.8865 -9e-5,1.6503 0.08214,2.261999 0.08813,0.6555 0.28688,1.2839 0.79654,1.793501 0.50966,0.509699 1.13801,0.7084 1.79353,0.7966 0.61166,0.0822 1.37547,0.0821 2.26196,0.0821 h 6.1316203 c 0.8865,0 1.6503,1e-4 2.262,-0.0821 0.6555,-0.0882 1.2839,-0.2869 1.7935,-0.7966 0.5097,-0.5096 0.7084,-1.138 0.7966,-1.7935 0.0822,-0.6117 0.0822,-1.3755 0.0821,-2.2619 V 8.7731975 l 0.3356,0.2983 c 0.4128,0.3669 1.0449,0.3297 1.4118,-0.083 0.3669,-0.4128 0.3298,-1.0449 -0.083,-1.4118 z m -1.9931,12.5663205 c -0.5523003,0 -1.0000003,0.4477 -1.0000003,1 v 1.999999 c 0,0.5523 -0.4477,1 -1,1 -0.55228,0 -1,-0.4477 -1,-1 v -1.999999 c 0,-1.6569 1.3431,-3 3.0000003,-3 1.6569,0 3,1.3431 3,3 v 1.999999 c 0,0.5523 -0.4477,1 -1,1 -0.5523,0 -1,-0.4477 -1,-1 v -1.999999 c 0,-0.5523 -0.4477,-1 -1,-1 z"
     fill="#fffaf7"
     id="path2" />
</svg>
